# xmcd
#
# Track frame offsets:
#	150
#	15711
#	29414
#	42447
#	59800
#	83363
#	98868
#	114992
#	132239
#	149131
#	170091
#	189422
#
# Disc length: 2814 seconds
#
# Revision: 0
# Processed by: cddbd v1.5.1PL0 Copyright (c) Steve Scherf et al.
# Submitted via: audiograbber 1.83.01
#
DISCID=a90afc0c
DTITLE=McBride, Martina - Emotion - McBride, Martina - Emotion
DYEAR=1999
DGENRE=Country
TTITLE0=Do What You Do
TTITLE1=Anything's Better Than Feelin' The Blues
TTITLE2=I Love You
TTITLE3=Make Me Believe
TTITLE4=Love's The Only House
TTITLE5=There You Are
TTITLE6=It's My Time
TTITLE7=I Ain't Goin' Nowhere
TTITLE8=Anything And Everything
TTITLE9=From The Ashes
TTITLE10=Good Bye
TTITLE11=This Uncivil War
EXTD=
EXTT0=
EXTT1=
EXTT2=
EXTT3=
EXTT4=
EXTT5=
EXTT6=
EXTT7=
EXTT8=
EXTT9=
EXTT10=
EXTT11=
PLAYORDER=
